<svg width="156" height="76" viewBox="0 0 156 76" fill="none" xmlns="http://www.w3.org/2000/svg">
<path d="M117.841 38C117.841 58.9868 134.925 76 156 76V0C134.925 0 117.841 17.0132 117.841 38Z" fill="#19E578"/>
<path d="M38.1595 38C38.1595 58.9868 21.0749 76 0 76V0C21.0749 0 38.1595 17.0132 38.1595 38Z" fill="#19E578"/>
<path d="M15.6171 44.8492V73.1833H9.36187V44.8492H15.6171ZM24.1434 44.8492V49.7727H1.00879V44.8492H24.1434Z" fill="#3D0087"/>
<path d="M33.5028 52.1273V73.1833H27.4786V52.1273H33.5028ZM27.1129 46.6785C27.1129 45.7963 27.4208 45.0763 28.0367 44.5184C28.6526 43.9476 29.461 43.6622 30.4618 43.6622C31.4627 43.6622 32.271 43.9476 32.8869 44.5184C33.5156 45.0763 33.83 45.7963 33.83 46.6785C33.83 47.5477 33.5156 48.2677 32.8869 48.8386C32.271 49.3964 31.4627 49.6754 30.4618 49.6754C29.461 49.6754 28.6526 49.3964 28.0367 48.8386C27.4208 48.2677 27.1129 47.5477 27.1129 46.6785Z" fill="#3D0087"/>
<path d="M46.7694 68.8437C47.4109 68.8437 47.9691 68.7204 48.4438 68.4739C48.9186 68.2274 49.2843 67.8836 49.5409 67.4425C49.8103 66.9885 49.9451 66.4436 49.9451 65.8079H55.6036C55.6036 67.3388 55.2123 68.688 54.4296 69.8556C53.6597 71.0232 52.6204 71.9378 51.3116 72.5995C50.0028 73.2482 48.5272 73.5725 46.8848 73.5725C45.2681 73.5725 43.8567 73.3066 42.6506 72.7746C41.4444 72.2298 40.4372 71.4708 39.6288 70.4978C38.8205 69.5248 38.211 68.3961 37.8004 67.1117C37.4026 65.8144 37.2037 64.4132 37.2037 62.9083V62.4023C37.2037 60.9104 37.4026 59.5157 37.8004 58.2184C38.211 56.921 38.8205 55.7859 39.6288 54.8129C40.4372 53.8398 41.438 53.0874 42.6313 52.5555C43.8374 52.0106 45.2489 51.7381 46.8656 51.7381C48.5721 51.7381 50.0798 52.069 51.3886 52.7306C52.7102 53.3923 53.7431 54.3458 54.4873 55.5913C55.2315 56.8237 55.6036 58.3092 55.6036 60.0477H49.9451C49.9451 59.373 49.8232 58.7698 49.5794 58.2379C49.3484 57.693 48.9891 57.2648 48.5016 56.9535C48.0268 56.6291 47.4366 56.467 46.7309 56.467C45.9995 56.467 45.3964 56.6291 44.9217 56.9535C44.4597 57.2648 44.1069 57.6995 43.8631 58.2573C43.6193 58.8152 43.4525 59.4509 43.3627 60.1644C43.2729 60.865 43.228 61.611 43.228 62.4023V62.9083C43.228 63.7127 43.2729 64.4781 43.3627 65.2046C43.4525 65.9182 43.6193 66.5474 43.8631 67.0923C44.1197 67.6371 44.479 68.0653 44.9409 68.3766C45.4028 68.688 46.0123 68.8437 46.7694 68.8437Z" fill="#3D0087"/>
<path d="M64.8668 43.2729V73.1833H58.8426V43.2729H64.8668ZM78.0893 52.1273L69.0241 62.7137L64.2317 67.5788L61.8258 63.4727L65.7137 58.3935L70.8526 52.1273H78.0893ZM71.7379 73.1833L65.8677 63.5116L70.1789 60.106L78.6282 73.1833H71.7379Z" fill="#3D0087"/>
<path d="M92.731 52.1273V56.3891H80.3746V52.1273H92.731ZM83.2039 46.912H89.2281V66.5863C89.2281 67.1701 89.2987 67.6177 89.4398 67.929C89.5809 68.2404 89.8119 68.461 90.1327 68.5907C90.4535 68.7075 90.8641 68.7658 91.3645 68.7658C91.7238 68.7658 92.0317 68.7529 92.2883 68.7269C92.5449 68.701 92.7823 68.6685 93.0005 68.6296V73.0276C92.4872 73.1963 91.9419 73.326 91.3645 73.4168C90.7871 73.5206 90.1584 73.5725 89.4783 73.5725C88.1824 73.5725 87.0596 73.3584 86.1101 72.9303C85.1735 72.5022 84.4549 71.8276 83.9545 70.9065C83.4541 69.9724 83.2039 68.7593 83.2039 67.2674V46.912Z" fill="#3D0087"/>
<path d="M107.21 63.3364H100.166V58.413H107.21C108.249 58.413 109.083 58.2379 109.712 57.8876C110.354 57.5373 110.822 57.0573 111.117 56.4475C111.425 55.8248 111.579 55.1242 111.579 54.3458C111.579 53.5415 111.425 52.7955 111.117 52.1079C110.822 51.4073 110.354 50.843 109.712 50.4148C109.083 49.9867 108.249 49.7727 107.21 49.7727H102.437V73.1833H96.1625V44.8492H107.21C109.443 44.8492 111.355 45.2579 112.946 46.0752C114.549 46.8925 115.775 48.0148 116.622 49.4418C117.481 50.8559 117.911 52.4776 117.911 54.3069C117.911 56.1362 117.481 57.7254 116.622 59.0746C115.775 60.4239 114.549 61.4747 112.946 62.2272C111.355 62.9667 109.443 63.3364 107.21 63.3364Z" fill="#3D0087"/>
<path d="M127.675 57.0313V73.1833H121.67V52.1273H127.309L127.675 57.0313ZM133.892 51.9717L133.795 57.6346C133.539 57.5957 133.205 57.5632 132.795 57.5373C132.384 57.4984 132.031 57.4789 131.736 57.4789C130.966 57.4789 130.299 57.5762 129.734 57.7708C129.183 57.9524 128.721 58.2249 128.349 58.5881C127.989 58.9514 127.72 59.4055 127.54 59.9504C127.361 60.4823 127.271 61.0985 127.271 61.7991L126.135 61.2347C126.135 59.8466 126.27 58.5752 126.539 57.4205C126.809 56.2659 127.2 55.2669 127.713 54.4237C128.227 53.5674 128.855 52.9058 129.6 52.4387C130.344 51.9717 131.191 51.7381 132.14 51.7381C132.448 51.7381 132.762 51.7576 133.083 51.7965C133.404 51.8354 133.673 51.8938 133.892 51.9717Z" fill="#3D0087"/>
<path d="M135.071 62.8694V62.4607C135.071 60.9169 135.289 59.4963 135.726 58.1989C136.162 56.8886 136.803 55.7534 137.65 54.7934C138.497 53.8334 139.536 53.0874 140.768 52.5555C142 52.0106 143.411 51.7381 145.003 51.7381C146.619 51.7381 148.043 52.0106 149.275 52.5555C150.52 53.0874 151.566 53.8334 152.412 54.7934C153.259 55.7534 153.901 56.8886 154.337 58.1989C154.773 59.4963 154.992 60.9169 154.992 62.4607V62.8694C154.992 64.4003 154.773 65.8209 154.337 67.1312C153.901 68.4285 153.259 69.5637 152.412 70.5367C151.566 71.4968 150.526 72.2427 149.295 72.7746C148.063 73.3066 146.645 73.5725 145.041 73.5725C143.45 73.5725 142.032 73.3066 140.787 72.7746C139.543 72.2427 138.497 71.4968 137.65 70.5367C136.803 69.5637 136.162 68.4285 135.726 67.1312C135.289 65.8209 135.071 64.4003 135.071 62.8694ZM141.095 62.4607V62.8694C141.095 63.6997 141.16 64.4781 141.288 65.2046C141.429 65.9311 141.654 66.5668 141.962 67.1117C142.269 67.6566 142.674 68.0847 143.174 68.3961C143.687 68.6945 144.31 68.8437 145.041 68.8437C145.772 68.8437 146.388 68.6945 146.889 68.3961C147.389 68.0847 147.793 67.6566 148.101 67.1117C148.409 66.5668 148.627 65.9311 148.756 65.2046C148.897 64.4781 148.967 63.6997 148.967 62.8694V62.4607C148.967 61.6434 148.897 60.878 148.756 60.1644C148.627 59.4379 148.409 58.7957 148.101 58.2379C147.793 57.68 147.383 57.2454 146.869 56.934C146.369 56.6227 145.747 56.467 145.003 56.467C144.284 56.467 143.674 56.6227 143.174 56.934C142.674 57.2454 142.269 57.68 141.962 58.2379C141.654 58.7957 141.429 59.4379 141.288 60.1644C141.16 60.878 141.095 61.6434 141.095 62.4607Z" fill="#3D0087"/>
<path d="M145.744 24.2292H139.472C139.947 23.2733 140.184 22.278 140.184 21.2432C140.184 20.3158 139.98 19.3997 139.571 18.4948C139.162 17.59 138.663 16.7531 138.072 15.984C137.504 15.2149 136.937 14.5702 136.369 14.0499H135.96C135.279 14.1856 134.393 14.2874 133.303 14.3553C132.236 14.4231 131.123 14.4571 129.965 14.4571H113.202L121.244 7.6709L118.519 3.46347H118.11L103.803 15.95C103.984 17.6013 104.518 18.7663 105.404 19.4449C106.289 20.1009 107.391 20.4289 108.708 20.4289H128.466C129.102 20.4289 129.726 20.4063 130.339 20.361C130.975 20.2932 131.679 20.1914 132.451 20.0557C132.545 20.0392 132.641 20.0218 132.74 20.0037C132.822 20.141 132.907 20.2941 132.997 20.4628C133.246 20.8926 133.371 21.4016 133.371 21.9897C133.371 22.691 133.087 23.2452 132.52 23.6523C131.952 24.0369 130.828 24.2292 129.147 24.2292H101.622L101.603 24.2485V24.2292H97.2087V11.6069H96.7999L89.9869 12.2855V21.2432C89.9869 22.2838 90.0436 23.1434 90.1572 23.822C90.1816 23.9676 90.2111 24.1033 90.246 24.2292H69.0905V17.7446H68.7194L62.5345 18.4235V27.3851C62.5345 28.426 62.5995 29.3697 62.7026 30.0486L62.7347 30.201H146.973C148.403 30.201 149.584 30.1331 150.516 29.9974C151.469 29.8617 152.287 29.6581 152.968 29.3867V29.1152C152.877 28.708 152.809 28.1651 152.764 27.4865C152.741 26.8079 152.718 26.118 152.696 25.4167V11.6069H152.287L145.474 12.2855V21.1075C145.474 22.1481 145.531 23.0303 145.644 23.7541C145.671 23.9258 145.704 24.0842 145.744 24.2292Z" fill="#3D0087"/>
<path d="M150.754 7.6709C151.367 8.19117 152.094 8.45131 152.934 8.45131C153.797 8.45131 154.524 8.19117 155.114 7.6709C155.705 7.128 156 6.37021 156 5.39753C156 4.40222 155.705 3.64443 155.114 3.12416C154.524 2.60389 153.797 2.34375 152.934 2.34375C152.094 2.34375 151.367 2.60389 150.754 3.12416C150.163 3.64443 149.868 4.40222 149.868 5.39753C149.868 6.37021 150.163 7.128 150.754 7.6709Z" fill="#3D0087"/>
<path d="M143.839 8.41738C144.452 8.93765 145.179 9.19779 146.019 9.19779C146.882 9.19779 147.609 8.93765 148.199 8.41738C148.79 7.87448 149.085 7.11669 149.085 6.14401C149.085 5.1487 148.79 4.39091 148.199 3.87064C147.609 3.35037 146.882 3.09023 146.019 3.09023C145.179 3.09023 144.452 3.35037 143.839 3.87064C143.248 4.39091 142.953 5.1487 142.953 6.14401C142.953 7.11669 143.248 7.87448 143.839 8.41738Z" fill="#3D0087"/>
<path d="M81.8793 14.2874C82.4925 14.8077 83.2192 15.0678 84.0595 15.0678C84.9225 15.0678 85.6492 14.8077 86.2397 14.2874C86.8302 13.7445 87.1254 12.9867 87.1254 12.014C87.1254 11.0187 86.8302 10.261 86.2397 9.74068C85.6492 9.22041 84.9225 8.96027 84.0595 8.96027C83.2192 8.96027 82.4925 9.22041 81.8793 9.74068C81.2889 10.261 80.9937 11.0187 80.9937 12.014C80.9937 12.9867 81.2889 13.7445 81.8793 14.2874Z" fill="#3D0087"/>
<path d="M74.9641 15.0339C75.5773 15.5542 76.304 15.8143 77.1443 15.8143C78.0073 15.8143 78.734 15.5542 79.3245 15.0339C79.9149 14.491 80.2102 13.7332 80.2102 12.7605C80.2102 11.7652 79.9149 11.0074 79.3245 10.4872C78.734 9.96689 78.0073 9.70675 77.1443 9.70675C76.304 9.70675 75.5773 9.96689 74.9641 10.4872C74.3737 11.0074 74.0784 11.7652 74.0784 12.7605C74.0784 13.7332 74.3737 14.491 74.9641 15.0339Z" fill="#3D0087"/>
<path d="M39.8626 30.201V30.1872L39.8488 30.201H35.5322C35.4384 30.6024 35.333 30.987 35.2159 31.3546C34.6482 33.2095 33.8306 34.6912 32.7632 35.7996C31.7186 36.9306 30.4695 37.745 29.0161 38.2426C27.5853 38.7629 25.9956 39.023 24.2469 39.023C23.6565 39.023 23.0206 38.9778 22.3393 38.8873C21.658 38.7968 21.0789 38.7063 20.602 38.6158L19.8866 38.4801V38.073L21.7943 32.5083C22.4528 32.6666 23.0887 32.791 23.7019 32.8815C24.3151 32.9946 24.9055 33.0512 25.4733 33.0512C26.359 33.0512 27.1084 32.9268 27.7216 32.6779C27.7953 32.648 27.8657 32.6188 27.9329 32.5902C28.0447 32.3169 28.1446 32.0181 28.2326 31.694C28.4597 30.857 28.6186 29.873 28.7095 28.742C28.823 27.6109 28.8798 26.3781 28.8798 25.0435C28.8798 23.0303 28.7776 21.1075 28.5732 19.2753C28.3688 17.443 28.1531 15.7238 27.926 14.1178L34.8753 13.4391H35.2841C35.5112 15.0226 35.7042 16.8096 35.8632 18.8002C36.0143 20.6712 36.0936 22.4809 36.101 24.2292H40.5301V24.2429L40.5439 24.2292H44.0845C44.0448 24.0842 44.0115 23.9258 43.9845 23.7541C43.871 23.0303 43.8142 22.1481 43.8142 21.1075V12.2855L50.6272 11.6069H51.036V25.4167C51.0587 26.118 51.0814 26.8079 51.1041 27.4865C51.1496 28.1651 51.2177 28.708 51.3085 29.1152V29.3867C50.6272 29.6581 49.8097 29.8617 48.8558 29.9974C47.9247 30.1331 46.7438 30.201 45.3131 30.201H39.8626Z" fill="#3D0087"/>
<path d="M44.0867 35.6639C44.0867 34.6912 44.3819 33.9447 44.9724 33.4244C45.5856 32.9042 46.3123 32.644 47.1526 32.644C48.0156 32.644 48.7423 32.9042 49.3327 33.4244C49.9232 33.9447 50.2184 34.6912 50.2184 35.6639C50.2184 36.6592 49.9232 37.417 49.3327 37.9372C48.7423 38.4801 48.0156 38.7516 47.1526 38.7516C46.3123 38.7516 45.5856 38.4801 44.9724 37.9372C44.3819 37.417 44.0867 36.6592 44.0867 35.6639Z" fill="#3D0087"/>
<path fill-rule="evenodd" clip-rule="evenodd" d="M3.78123 38.6498C4.93945 38.9212 6.31341 39.057 7.90312 39.057C10.2423 39.057 12.2748 38.548 14.0008 37.5301C15.7268 36.5348 17.0666 35.0305 18.0205 33.0173C18.997 31.0266 19.4853 28.561 19.4853 25.6203C19.4853 23.5392 19.19 21.673 18.5996 20.0217C18.0091 18.3704 17.2256 16.968 16.2491 15.8143C15.2726 14.6607 14.1938 13.7785 13.0129 13.1677C11.832 12.5569 10.6397 12.2516 9.43605 12.2516C8.11886 12.2516 6.89252 12.523 5.75701 13.0659C4.62151 13.6088 3.62226 14.344 2.75928 15.2714C1.89629 16.1989 1.21499 17.2733 0.715369 18.4948C0.238456 19.7164 0 21.0057 0 22.363C0 24.0143 0.408782 25.428 1.22635 26.6043C2.06662 27.7806 3.23619 28.6854 4.73506 29.3188C6.23392 29.9295 7.97125 30.2349 9.94703 30.2349C10.4467 30.2349 10.9349 30.2123 11.4118 30.1671C11.6814 30.1304 11.951 30.0872 12.2206 30.0375C12.1077 30.9735 11.9517 31.684 11.7525 32.169C11.6973 32.3094 11.6422 32.4407 11.587 32.563C11.3535 32.6687 11.1134 32.7523 10.8668 32.8137C10.1401 32.9946 9.28843 33.0851 8.3119 33.0851C7.65331 33.0851 6.77897 32.9946 5.68888 32.8137C4.62151 32.6327 3.5882 32.316 2.58895 31.8636H2.18017L0.136261 37.4283L1.09009 37.8354C1.72597 38.1069 2.62302 38.3783 3.78123 38.6498ZM12.3331 24.1312C12.2831 23.7104 12.2145 23.3019 12.1272 22.9059C11.9455 21.9558 11.6503 21.0736 11.2415 20.2593C10.8327 19.4449 10.3217 18.7097 9.70857 18.0537C9.46837 17.7777 9.20938 17.5185 8.9316 17.2761C8.45898 17.5659 8.04802 17.9269 7.69873 18.3591C6.972 19.2866 6.60864 20.3045 6.60864 21.4129C6.60864 21.7974 6.72219 22.2272 6.94929 22.7023C7.17639 23.1773 7.53976 23.5845 8.03938 23.9238C8.56171 24.2405 9.26573 24.3988 10.1514 24.3988C10.5602 24.3988 10.969 24.3762 11.3778 24.331C11.6962 24.2781 12.0147 24.2115 12.3331 24.1312Z" fill="#3D0087"/>
</svg>
